<svg id="Layer_1" data-name="Layer 1" xmlns="http://www.w3.org/2000/svg" viewBox="0 0 791.07 296.9"><defs><style>.cls-1,.cls-3{fill:#010101;}.cls-1,.cls-2{fill-rule:evenodd;}.cls-2{fill:#ed2224;}.cls-4{fill:#818181;}</style></defs><title>Logo-Black-Full</title><path class="cls-1" d="M186.36,60.15C252-1.38,466.62-13.87,540.84,14.31c0,0,25.78,7.75,34.89,22.18,23.09,36.55-77.5,62.9-93.36,66.7,0,0-71.9,19-155.66,21.75l67.13,40.84c7.51,4.6,34.46,19,40.43,28.78,8.78,14.37-20.54,12.34-33.92,3.34-15.89-10.72-58.18-39.47-86.87-60.93,0,0-47.42,84.16-82.57,82.19,0,0-11.46.4,0-24.49,0,0,22.52-66,92-120.51l1.29-9.49a299.66,299.66,0,0,0-52.27,42s-9.77,9.2-19,5.63c0,0-4.65-1.57.6-9.26L285,53.32C215.74,102.13,94.57,211.88,29.9,213.53,7.21,216,1.69,209.45.12,191c-1.17-13.81,6.37-8.49,13.75-3.58,55,36.58,209.36-111.54,284.8-152,0,0,7.8-5.72,11.66-1.49,0,0,3,2.69-.4,8.32l-23.8,38.21s38.72-31,48.89-26.47c0,0,7.32,1.29,4.15,9.58,0,0,34.49-29.44,41.09-23.81,0,0,3.57,3.66-3.54,7,0,0-28.64,16.49-38.33,25.38,0,0-6.91,26.66-14.23,44.44,0,0,178.07-14.38,219.91-57.13C556.19,47,556.3,35.2,540.7,26.52,483.37-5.32,246,9.17,211.54,65.07c-5.92,9.57,3.37,10.32,1.57,15-3.4,7.35-47.67-.34-26.75-19.95ZM316.93,89.67c-27.69,25.18-49.78,58.25-64.81,101.34A317.84,317.84,0,0,0,316.93,89.67Z"/><path class="cls-2" d="M471.4,181A12.43,12.43,0,1,1,459,193.44,12.44,12.44,0,0,1,471.4,181Z"/><path class="cls-3" d="M510.75,217.93H536a32.41,32.41,0,0,0,8.29-1,19,19,0,0,0,6.34-2.86,12.58,12.58,0,0,0,4.09-4.68,14.46,14.46,0,0,0,1.46-6.43v-.17a13.52,13.52,0,0,0-1.4-6.23,12.06,12.06,0,0,0-3.81-4.26,21.86,21.86,0,0,0-5.63-2.75,16.84,16.84,0,0,0,3.81-2.63A11.52,11.52,0,0,0,552,183a13.31,13.31,0,0,0,1.12-5.6v-.17a13.22,13.22,0,0,0-.92-5,12.79,12.79,0,0,0-2.74-4,14.81,14.81,0,0,0-5.94-3.58,25.49,25.49,0,0,0-8.32-1.25H510.75Zm32.8-39a6.52,6.52,0,0,1-1.28,4.15,7.77,7.77,0,0,1-3.6,2.45,16,16,0,0,1-5.4.8H520.18V171.89H534c3.09,0,5.46.63,7.09,1.86a6,6,0,0,1,2.48,5.09Zm3,22.84V202a6.55,6.55,0,0,1-1.25,4.11,7.5,7.5,0,0,1-3.6,2.55,17.51,17.51,0,0,1-5.66.83H520.18V194.5h15.2c3.77,0,6.6.66,8.43,1.91a6.13,6.13,0,0,1,2.77,5.41ZM567,217.93h9.57v-19h12l13.41,19h11.37L598.62,197.3a20.91,20.91,0,0,0,6.72-3.26,15.09,15.09,0,0,0,4.54-5.48,17.39,17.39,0,0,0,1.69-7.78v-.14a18.07,18.07,0,0,0-1.2-6.57,15.07,15.07,0,0,0-3.32-5.2,17.67,17.67,0,0,0-6.63-4,27,27,0,0,0-9.11-1.45H567Zm9.57-27.49V172.12h13.95a15.71,15.71,0,0,1,6.05,1.06,8.39,8.39,0,0,1,3.89,3,8.87,8.87,0,0,1,1.34,5v.14a8.28,8.28,0,0,1-1.4,4.84,8.65,8.65,0,0,1-3.85,3.14,14.68,14.68,0,0,1-6,1.14Zm42.07,27.49h9.8l5.63-13.14h25.78l5.51,13.14h10.15l-24-54.92h-8.89Zm18.92-21.66,9.34-21.8,9.43,21.8Zm47.29,21.66h9.43V179.15l30.07,38.78h8V163.41H723V201.1l-29.2-37.69h-8.89Zm74.93,0h9.66V172.29h17.32v-8.88H742.51v8.88H759.8Z"/><path class="cls-4" d="M19.78,263.72a11.81,11.81,0,0,0-3,.43,8.27,8.27,0,0,0-2.37,1.14A7.22,7.22,0,0,0,12.67,267a7.93,7.93,0,0,0-1.17,2,14.65,14.65,0,0,0-.61,2.37c-.11.83-.17,1.77-.2,2.77s0,2.14,0,3.37,0,2.4,0,3.4a20.56,20.56,0,0,0,.2,2.77A9.87,9.87,0,0,0,11.5,286a7.77,7.77,0,0,0,1.14,2,8.15,8.15,0,0,0,1.77,1.69,9.5,9.5,0,0,0,2.4,1.14,11.16,11.16,0,0,0,6,0,11.64,11.64,0,0,0,2.6-1.11,8.89,8.89,0,0,0,2-1.66l-2.06-2A6.82,6.82,0,0,1,23,287.75a8.46,8.46,0,0,1-3.23.66,6.57,6.57,0,0,1-2.8-.57,5,5,0,0,1-1.91-1.52,4.56,4.56,0,0,1-.8-1.51,8,8,0,0,1-.43-1.86c-.09-.69-.14-1.49-.17-2.37s0-1.92,0-3.09,0-2.2,0-3.11.08-1.69.17-2.38a8,8,0,0,1,.43-1.88,5.43,5.43,0,0,1,.85-1.52,5,5,0,0,1,2-1.51,6.74,6.74,0,0,1,2.68-.52,8.38,8.38,0,0,1,2.12.26,8.11,8.11,0,0,1,1.77.74,7.17,7.17,0,0,1,1.4,1.12l1.83-2.26A10.65,10.65,0,0,0,25,265a10.67,10.67,0,0,0-2.43-.94,12.19,12.19,0,0,0-2.77-.37Zm15.95,3.06h2.4c1,0,1.91,0,2.69.05a6.59,6.59,0,0,1,2.08.37,4.61,4.61,0,0,1,1.69,1,5.08,5.08,0,0,1,.88,1.15,5.55,5.55,0,0,1,.52,1.4,6.85,6.85,0,0,1,.17,1.51,7.29,7.29,0,0,1-.17,1.55,6.77,6.77,0,0,1-.52,1.4,5.78,5.78,0,0,1-.88,1.14,4.91,4.91,0,0,1-1.69,1,8.89,8.89,0,0,1-2.08.37c-.78.06-1.69.06-2.69.06h-2.4Zm-3-2.86V291h3V280.61h4.09c.45,0,.85,0,1.2,0l.94-.09L46.33,291h3.26l-4.8-11.32A7.51,7.51,0,0,0,47.05,278a7.61,7.61,0,0,0,1.54-2.54,8.82,8.82,0,0,0,.57-3.23,9.07,9.07,0,0,0-.66-3.48,8,8,0,0,0-1.8-2.61,6.93,6.93,0,0,0-1.91-1.31,10.53,10.53,0,0,0-2.06-.66,15.31,15.31,0,0,0-2.26-.23c-.74,0-1.54-.05-2.34-.05Zm21.92,0V291h15v-2.86h-12v-9.66h9.57v-2.83H57.65v-8.88h12v-2.86ZM73.34,291h3.14l2.17-6.72H88.88L91,291H94.2L85,263.92H82.54ZM88,281.46H79.54l4.23-13.31Zm4.4-17.54v2.86H100V291h3V266.78h7.63v-2.86Zm25.92,0h-3V291h3ZM133.89,291l8.69-27.09h-3.14l-7,22.77-7-22.77h-3.14L131,291Zm12.75-27.09V291h15v-2.86h-12v-9.66h9.57v-2.83h-9.57v-8.88h12v-2.86ZM188.05,261V296.9h2.43V261Zm29.2,2.95V291h3v-9.57h1.83c.83,0,1.6,0,2.38-.06a20.65,20.65,0,0,0,2.25-.23,10.23,10.23,0,0,0,2.12-.66,8.14,8.14,0,0,0,3.54-3.31,8.42,8.42,0,0,0,.86-2.26,8.82,8.82,0,0,0,.29-2.23,8.93,8.93,0,0,0-.29-2.26,8.23,8.23,0,0,0-.86-2.25,8.09,8.09,0,0,0-3.54-3.32,10.87,10.87,0,0,0-2.12-.66,15.18,15.18,0,0,0-2.25-.23c-.78,0-1.55-.05-2.38-.05Zm3,2.86h1.83c1,0,1.92,0,2.69.05a7.29,7.29,0,0,1,2.17.37,4.84,4.84,0,0,1,1.75,1,5.66,5.66,0,0,1,1.31,1.86,7.22,7.22,0,0,1,0,5.23,5.66,5.66,0,0,1-1.31,1.86,5.41,5.41,0,0,1-1.75,1,10,10,0,0,1-2.17.34c-.77.06-1.69.06-2.69.06h-1.83Zm18.32-2.86V291h3V278.49h11.86V291h3V263.92h-3v11.74H241.57V263.92Zm26.55,13.57c0-1.37,0-2.57,0-3.63a20.55,20.55,0,0,1,.29-2.68,5.86,5.86,0,0,1,.74-2,4.7,4.7,0,0,1,1.26-1.4,5.18,5.18,0,0,1,1.77-.89,7.28,7.28,0,0,1,2.11-.32,7.39,7.39,0,0,1,2.15.32,5.36,5.36,0,0,1,1.77.89,5.49,5.49,0,0,1,1.26,1.4,5.86,5.86,0,0,1,.74,2,17.9,17.9,0,0,1,.26,2.68c0,1.06.05,2.26.05,3.63s0,2.57-.05,3.6a17.64,17.64,0,0,1-.26,2.69,6.11,6.11,0,0,1-.74,2,5.16,5.16,0,0,1-3,2.28,7.39,7.39,0,0,1-2.15.32,7.28,7.28,0,0,1-2.11-.32,6,6,0,0,1-1.77-.88,5.24,5.24,0,0,1-1.26-1.4,6.11,6.11,0,0,1-.74-2,20.14,20.14,0,0,1-.29-2.69c0-1,0-2.23,0-3.6Zm-3,0c0,1.2,0,2.26,0,3.2a24.58,24.58,0,0,0,.14,2.57,11.86,11.86,0,0,0,.43,2.12,12.47,12.47,0,0,0,.86,1.86,8,8,0,0,0,1.91,2.14,8.39,8.39,0,0,0,2.66,1.37,10.08,10.08,0,0,0,3.17.49,10.22,10.22,0,0,0,3.2-.49,8.13,8.13,0,0,0,2.63-1.37,7.79,7.79,0,0,0,2-2.14,10.58,10.58,0,0,0,.83-1.86,11.05,11.05,0,0,0,.42-2.12c.09-.77.15-1.62.18-2.57s0-2,0-3.2,0-2.26,0-3.2-.09-1.8-.18-2.57a11.21,11.21,0,0,0-.42-2.12,9.88,9.88,0,0,0-.83-1.85,7.83,7.83,0,0,0-2-2.15,8.33,8.33,0,0,0-2.63-1.37,9.67,9.67,0,0,0-3.2-.51,9.54,9.54,0,0,0-3.17.51,8.6,8.6,0,0,0-2.66,1.37,8,8,0,0,0-1.91,2.15,11.5,11.5,0,0,0-.86,1.85,12,12,0,0,0-.43,2.12,24.27,24.27,0,0,0-.14,2.57c0,.94,0,2,0,3.2Zm21.46-13.57v2.86h7.63V291h3V266.78h7.63v-2.86Zm24.32,13.57c0-1.37,0-2.57.06-3.63a16.67,16.67,0,0,1,.26-2.68,5.86,5.86,0,0,1,.74-2,4.7,4.7,0,0,1,1.26-1.4,5.18,5.18,0,0,1,1.77-.89,7.25,7.25,0,0,1,4.26,0,5.36,5.36,0,0,1,1.77.89,4.57,4.57,0,0,1,1.26,1.4,5.86,5.86,0,0,1,.74,2,17.9,17.9,0,0,1,.26,2.68c.05,1.06.05,2.26.05,3.63s0,2.57-.05,3.6a17.64,17.64,0,0,1-.26,2.69,6.11,6.11,0,0,1-.74,2,5.08,5.08,0,0,1-1.26,1.4,6.24,6.24,0,0,1-1.77.88,7.25,7.25,0,0,1-4.26,0,6,6,0,0,1-1.77-.88,5.24,5.24,0,0,1-1.26-1.4,6.11,6.11,0,0,1-.74-2,16.45,16.45,0,0,1-.26-2.69c-.06-1-.06-2.23-.06-3.6Zm-3,0c0,1.2,0,2.26,0,3.2a24.58,24.58,0,0,0,.14,2.57,15.14,15.14,0,0,0,.46,2.12,9.9,9.9,0,0,0,.83,1.86,8,8,0,0,0,1.91,2.14,8.39,8.39,0,0,0,2.66,1.37,10.6,10.6,0,0,0,6.37,0,8.11,8.11,0,0,0,4.58-3.51,8.29,8.29,0,0,0,.83-1.86,11.83,11.83,0,0,0,.45-2.12,22,22,0,0,0,.15-2.57c0-.94,0-2,0-3.2s0-2.26,0-3.2a21.71,21.71,0,0,0-.15-2.57,12,12,0,0,0-.45-2.12,7.84,7.84,0,0,0-.83-1.85A8.22,8.22,0,0,0,320,265.6a8.38,8.38,0,0,0-2.66-1.37,10.2,10.2,0,0,0-6.37,0,8.6,8.6,0,0,0-2.66,1.37,8,8,0,0,0-1.91,2.15,9.27,9.27,0,0,0-.83,1.85,15.46,15.46,0,0,0-.46,2.12,24.27,24.27,0,0,0-.14,2.57c0,.94,0,2,0,3.2Zm32.84-13.77a11.88,11.88,0,0,0-3,.43,8.46,8.46,0,0,0-2.38,1.14,7.45,7.45,0,0,0-1.74,1.66,6.91,6.91,0,0,0-1.17,2,9.8,9.8,0,0,0-.6,2.37,20.8,20.8,0,0,0-.23,2.77c0,1-.06,2.14,0,3.37s0,2.4,0,3.4a20.56,20.56,0,0,0,.2,2.77,9.4,9.4,0,0,0,.6,2.32,9.54,9.54,0,0,0,1.14,2,8.44,8.44,0,0,0,1.78,1.69,9.5,9.5,0,0,0,2.4,1.14,11.23,11.23,0,0,0,5.94,0,8.89,8.89,0,0,0,2.4-1.14,8.15,8.15,0,0,0,1.77-1.69A7.78,7.78,0,0,0,346,286a10.28,10.28,0,0,0,.6-2.4,28.85,28.85,0,0,0,.22-3.06c0-1.14,0-2.48,0-4h-8.6v2.83h5.6c0,1.14-.05,2.14-.11,3a9.49,9.49,0,0,1-.43,2.23,5.2,5.2,0,0,1-2.8,3.26,6.47,6.47,0,0,1-2.8.57,6.63,6.63,0,0,1-2.8-.57,5.06,5.06,0,0,1-1.92-1.52,5.44,5.44,0,0,1-.8-1.51,8.49,8.49,0,0,1-.43-1.86c-.08-.69-.14-1.49-.17-2.37s0-1.92,0-3.09c0-1.54,0-2.88.06-4a13.15,13.15,0,0,1,.37-2.83,5.46,5.46,0,0,1,1-2.09,4.94,4.94,0,0,1,2-1.51,6.79,6.79,0,0,1,2.69-.52,8.13,8.13,0,0,1,2.11.26,7.72,7.72,0,0,1,1.77.74,6.88,6.88,0,0,1,1.4,1.12l1.83-2.26a9.91,9.91,0,0,0-1.91-1.4,10.67,10.67,0,0,0-2.43-.94,12,12,0,0,0-2.77-.37Zm17.83,3.06H358c1,0,1.89,0,2.69.05a6.4,6.4,0,0,1,2,.37,4.17,4.17,0,0,1,1.69,1,4,4,0,0,1,.89,1.15,5.22,5.22,0,0,1,.54,1.4,6.85,6.85,0,0,1,.17,1.51,7.29,7.29,0,0,1-.17,1.55,6.32,6.32,0,0,1-.54,1.4,4.59,4.59,0,0,1-2.58,2.14,8.62,8.62,0,0,1-2,.37c-.8.06-1.69.06-2.69.06h-2.4Zm-3-2.86V291h3V280.61h4.09c.45,0,.85,0,1.17,0l.94-.09L366.14,291h3.26l-4.77-11.32a7.77,7.77,0,0,0,2.23-1.66,7.22,7.22,0,0,0,1.57-2.54,8.82,8.82,0,0,0,.57-3.23,8.71,8.71,0,0,0-.68-3.48,7.43,7.43,0,0,0-1.8-2.61,7.15,7.15,0,0,0-1.89-1.31,10.59,10.59,0,0,0-2.09-.66,14.38,14.38,0,0,0-2.23-.23c-.77,0-1.54-.05-2.34-.05ZM372,291h3.17l2.17-6.72h10.21l2.17,6.72h3.17l-9.23-27.09h-2.43Zm14.66-9.55h-8.43l4.2-13.31Zm9.86-17.54V291h3v-9.57h1.83c.83,0,1.6,0,2.37-.06a20.83,20.83,0,0,0,2.26-.23,10.14,10.14,0,0,0,2.11-.66,7,7,0,0,0,1.95-1.31,7.2,7.2,0,0,0,1.6-2,9.8,9.8,0,0,0,1.14-4.49,8.91,8.91,0,0,0-.28-2.26,8.57,8.57,0,0,0-.86-2.25,7.24,7.24,0,0,0-1.6-2,7,7,0,0,0-1.95-1.31,10.78,10.78,0,0,0-2.11-.66,15.31,15.31,0,0,0-2.26-.23c-.77,0-1.54-.05-2.37-.05Zm3,2.86h1.83c1,0,1.91,0,2.69.05a7.35,7.35,0,0,1,2.17.37,4.72,4.72,0,0,1,1.74,1,5.84,5.84,0,0,1,1.32,1.86,7.36,7.36,0,0,1,0,5.23,5.84,5.84,0,0,1-1.32,1.86,5.27,5.27,0,0,1-1.74,1,10.07,10.07,0,0,1-2.17.34c-.78.06-1.69.06-2.69.06h-1.83Zm18.32-2.86V291h3V278.49h11.86V291h3V263.92h-3v11.74H420.87V263.92Zm23.95,0V291h15v-2.86h-12v-9.66h9.57v-2.83h-9.57v-8.88h12v-2.86Zm23.72,2.86h2.37c1,0,1.91,0,2.69.05a6.44,6.44,0,0,1,2.08.37,4.17,4.17,0,0,1,1.69,1,3.79,3.79,0,0,1,.88,1.15,5.6,5.6,0,0,1,.55,1.4,6.85,6.85,0,0,1,.17,1.51,7.29,7.29,0,0,1-.17,1.55,6.89,6.89,0,0,1-.55,1.4,4.15,4.15,0,0,1-.88,1.14,4.41,4.41,0,0,1-1.69,1,8.61,8.61,0,0,1-2.08.37c-.78.06-1.66.06-2.69.06h-2.37Zm-3-2.86V291h3V280.61h4.08c.46,0,.86,0,1.18,0l.94-.09L476.11,291h3.26l-4.8-11.32a7.64,7.64,0,0,0,2.26-1.66,8.2,8.2,0,0,0,1.57-2.54,8.82,8.82,0,0,0,.57-3.23,8.55,8.55,0,0,0-.69-3.48,7.43,7.43,0,0,0-1.8-2.61,7.27,7.27,0,0,0-1.88-1.31,11.5,11.5,0,0,0-2.09-.66,14.51,14.51,0,0,0-2.23-.23c-.77,0-1.54-.05-2.37-.05ZM505.15,261V296.9h2.43V261Zm29.23,2.95V291h15v-2.86h-12v-9.66H547v-2.83h-9.57v-8.88h12v-2.86Zm20.69,0V291h3V269.89L570.3,291h2.63V263.92h-3V285L557.7,263.92Zm22.52,0v2.86h7.66V291h3V266.78h7.63v-2.86Zm25.95,2.86h2.4c1,0,1.89,0,2.69.05a6.59,6.59,0,0,1,2.08.37,4.61,4.61,0,0,1,1.69,1,5.08,5.08,0,0,1,.88,1.15,5.55,5.55,0,0,1,.52,1.4,6.85,6.85,0,0,1,.17,1.51,7.29,7.29,0,0,1-.17,1.55,6.77,6.77,0,0,1-.52,1.4,5.78,5.78,0,0,1-.88,1.14,4.91,4.91,0,0,1-1.69,1,8.89,8.89,0,0,1-2.08.37c-.8.06-1.69.06-2.69.06h-2.4Zm-3-2.86V291h3V280.61h4.09c.45,0,.85,0,1.2,0l.91-.09,4.4,10.52h3.23l-4.77-11.32a7.9,7.9,0,0,0,2.26-1.66,7.61,7.61,0,0,0,1.54-2.54,8.82,8.82,0,0,0,.57-3.23,9.07,9.07,0,0,0-.66-3.48,8,8,0,0,0-1.8-2.61,6.93,6.93,0,0,0-1.91-1.31,10.19,10.19,0,0,0-2.09-.66,14.51,14.51,0,0,0-2.23-.23c-.74,0-1.54-.05-2.34-.05Zm21.92,0V291h15v-2.86h-12v-9.66H635v-2.83h-9.57v-8.88h12v-2.86Zm20.69,0V291h3v-9.57H648c.83,0,1.6,0,2.37-.06a21.09,21.09,0,0,0,2.26-.23,10.14,10.14,0,0,0,2.11-.66,6.92,6.92,0,0,0,1.94-1.31,7.06,7.06,0,0,0,1.61-2,10.14,10.14,0,0,0,1.14-4.49,8.93,8.93,0,0,0-.29-2.26,8.54,8.54,0,0,0-.85-2.25,7.1,7.1,0,0,0-1.61-2,6.92,6.92,0,0,0-1.94-1.31,10.78,10.78,0,0,0-2.11-.66,15.45,15.45,0,0,0-2.26-.23c-.77,0-1.54-.05-2.37-.05Zm3,2.86H648c1,0,1.91,0,2.68.05a7.42,7.42,0,0,1,2.18.37,4.8,4.8,0,0,1,1.74,1,5.66,5.66,0,0,1,1.31,1.86,6.84,6.84,0,0,1,0,5.23,5.66,5.66,0,0,1-1.31,1.86,5.37,5.37,0,0,1-1.74,1,10.16,10.16,0,0,1-2.18.34c-.77.06-1.68.06-2.68.06h-1.8Zm21.29,0h2.4c1,0,1.91,0,2.68.05a6.6,6.6,0,0,1,2.09.37,4.38,4.38,0,0,1,1.69,1,5.38,5.38,0,0,1,.88,1.15,5.55,5.55,0,0,1,.52,1.4,6.85,6.85,0,0,1,.17,1.51,7.29,7.29,0,0,1-.17,1.55,6.77,6.77,0,0,1-.52,1.4,6.18,6.18,0,0,1-.88,1.14,4.65,4.65,0,0,1-1.69,1,8.88,8.88,0,0,1-2.09.37c-.77.06-1.68.06-2.68.06h-2.4Zm-3-2.86V291h3V280.61h4.08c.46,0,.86,0,1.2,0l1-.09L678.07,291h3.26l-4.8-11.32a7.5,7.5,0,0,0,3.8-4.2,8.82,8.82,0,0,0,.57-3.23,9.07,9.07,0,0,0-.66-3.48,8.31,8.31,0,0,0-1.8-2.61,7.15,7.15,0,0,0-1.89-1.31,11.16,11.16,0,0,0-2.08-.66,15.31,15.31,0,0,0-2.26-.23c-.74,0-1.54-.05-2.34-.05Zm21.92,0V291h15v-2.86h-12v-9.66H699v-2.83h-9.6v-8.88h12v-2.86Zm20.71,0V291h3V269.89L722.31,291H725V263.92h-3V285l-12.21-21.12Zm23.95,0V291h15v-2.86h-12v-9.66h9.58v-2.83h-9.58v-8.88h12v-2.86Zm20.49,0v15.74c0,.92,0,1.8,0,2.6a21.83,21.83,0,0,0,.23,2.38,10.08,10.08,0,0,0,.63,2.11,7.29,7.29,0,0,0,1.23,1.89,6.78,6.78,0,0,0,1.71,1.43,8.91,8.91,0,0,0,2.15.88,10.28,10.28,0,0,0,4.85,0,8.91,8.91,0,0,0,2.15-.88,7,7,0,0,0,1.71-1.43,7.55,7.55,0,0,0,1.23-1.89,10.08,10.08,0,0,0,.63-2.11,21.83,21.83,0,0,0,.23-2.38c0-.8,0-1.68,0-2.6V263.92h-3v15.74c0,1.09,0,2.09-.06,3A9.54,9.54,0,0,1,765,285a5,5,0,0,1-1,1.8,4.94,4.94,0,0,1-1.8,1.23,6.39,6.39,0,0,1-4.45,0,5.06,5.06,0,0,1-1.81-1.23,5.13,5.13,0,0,1-1-1.8,9.54,9.54,0,0,1-.34-2.34c-.06-.89-.06-1.89-.06-3V263.92Zm25.69,2.86h2.4c1,0,1.89,0,2.69.05a6.82,6.82,0,0,1,2.09.37,4.5,4.5,0,0,1,1.68,1,5.11,5.11,0,0,1,.89,1.15,5.18,5.18,0,0,1,.51,1.4,6.3,6.3,0,0,1,.17,1.51,6.7,6.7,0,0,1-.17,1.55,6.21,6.21,0,0,1-.51,1.4,5.82,5.82,0,0,1-.89,1.14,4.78,4.78,0,0,1-1.68,1,9.27,9.27,0,0,1-2.09.37c-.8.06-1.69.06-2.69.06h-2.4Zm-3-2.86V291h3V280.61h4.09c.46,0,.86,0,1.2,0l.92-.09,4.4,10.52h3.23l-4.78-11.32a7.9,7.9,0,0,0,2.26-1.66,7.45,7.45,0,0,0,1.54-2.54,8.61,8.61,0,0,0,.58-3.23,9.07,9.07,0,0,0-.66-3.48,8.31,8.31,0,0,0-1.8-2.61,6.83,6.83,0,0,0-1.92-1.31,9.91,9.91,0,0,0-2.08-.66A14.64,14.64,0,0,0,782,264c-.74,0-1.55-.05-2.35-.05Z"/></svg>