<svg id="Layer_1" data-name="Layer 1" xmlns="http://www.w3.org/2000/svg" xmlns:xlink="http://www.w3.org/1999/xlink" viewBox="0 0 791.07 219.2"><defs><style>.cls-1{fill:none;}.cls-2,.cls-4{fill:#fff;}.cls-2,.cls-3{fill-rule:evenodd;}.cls-3{fill:#ed2224;}.cls-5{clip-path:url(#clip-path);}</style><clipPath id="clip-path"><rect class="cls-1" x="828.59" width="216" height="216"/></clipPath></defs><title>Logo-White-No-Tagline</title><path class="cls-2" d="M186.36,60.15C252-1.38,466.62-13.87,540.84,14.31c0,0,25.78,7.75,34.89,22.18,23.09,36.55-77.5,62.9-93.36,66.7,0,0-71.9,19-155.66,21.75l67.13,40.84c7.51,4.6,34.46,19,40.43,28.78,8.78,14.37-20.54,12.34-33.92,3.34-15.89-10.72-58.18-39.47-86.87-60.93,0,0-47.42,84.16-82.57,82.19,0,0-11.46.4,0-24.49,0,0,22.52-66,92-120.51l1.29-9.49a299.66,299.66,0,0,0-52.27,42s-9.77,9.2-19,5.63c0,0-4.65-1.57.6-9.26L285,53.32C215.74,102.13,94.57,211.88,29.9,213.53,7.21,216,1.69,209.45.12,191c-1.17-13.81,6.37-8.49,13.75-3.58,55,36.58,209.36-111.54,284.8-152,0,0,7.8-5.72,11.66-1.49,0,0,3,2.69-.4,8.32l-23.8,38.21s38.72-31,48.89-26.47c0,0,7.32,1.29,4.15,9.58,0,0,34.49-29.44,41.09-23.81,0,0,3.57,3.66-3.54,7,0,0-28.64,16.49-38.33,25.38,0,0-6.91,26.66-14.23,44.44,0,0,178.07-14.38,219.91-57.13C556.19,47,556.3,35.2,540.7,26.52,483.37-5.32,246,9.17,211.54,65.07c-5.92,9.57,3.37,10.32,1.57,15-3.4,7.35-47.67-.34-26.75-19.95ZM316.93,89.67c-27.69,25.18-49.78,58.25-64.81,101.34A317.84,317.84,0,0,0,316.93,89.67Z"/><path class="cls-3" d="M471.4,181A12.43,12.43,0,1,1,459,193.44,12.44,12.44,0,0,1,471.4,181Z"/><path class="cls-4" d="M510.75,217.93H536a32.41,32.41,0,0,0,8.29-1,19,19,0,0,0,6.34-2.86,12.58,12.58,0,0,0,4.09-4.68,14.46,14.46,0,0,0,1.46-6.43v-.17a13.52,13.52,0,0,0-1.4-6.23,12.06,12.06,0,0,0-3.81-4.26,21.86,21.86,0,0,0-5.63-2.75,16.84,16.84,0,0,0,3.81-2.63A11.52,11.52,0,0,0,552,183a13.31,13.31,0,0,0,1.12-5.6v-.17a13.22,13.22,0,0,0-.92-5,12.79,12.79,0,0,0-2.74-4,14.81,14.81,0,0,0-5.94-3.58,25.49,25.49,0,0,0-8.32-1.25H510.75Zm32.8-39a6.52,6.52,0,0,1-1.28,4.15,7.77,7.77,0,0,1-3.6,2.45,16,16,0,0,1-5.4.8H520.18V171.89H534c3.09,0,5.46.63,7.09,1.86a6,6,0,0,1,2.48,5.09Zm3,22.84V202a6.55,6.55,0,0,1-1.25,4.11,7.5,7.5,0,0,1-3.6,2.55,17.51,17.51,0,0,1-5.66.83H520.18V194.5h15.2c3.77,0,6.6.66,8.43,1.91a6.13,6.13,0,0,1,2.77,5.41ZM567,217.93h9.57v-19h12l13.41,19h11.37L598.62,197.3a20.91,20.91,0,0,0,6.72-3.26,15.09,15.09,0,0,0,4.54-5.48,17.39,17.39,0,0,0,1.69-7.78v-.14a18.07,18.07,0,0,0-1.2-6.57,15.07,15.07,0,0,0-3.32-5.2,17.67,17.67,0,0,0-6.63-4,27,27,0,0,0-9.11-1.45H567Zm9.57-27.49V172.12h13.95a15.71,15.71,0,0,1,6.05,1.06,8.39,8.39,0,0,1,3.89,3,8.87,8.87,0,0,1,1.34,5v.14a8.28,8.28,0,0,1-1.4,4.84,8.65,8.65,0,0,1-3.85,3.14,14.68,14.68,0,0,1-6,1.14Zm42.07,27.49h9.8l5.63-13.14h25.78l5.51,13.14h10.15l-24-54.92h-8.89Zm18.92-21.66,9.34-21.8,9.43,21.8Zm47.29,21.66h9.43V179.15l30.07,38.78h8V163.41H723V201.1l-29.2-37.69h-8.89Zm74.93,0h9.66V172.29h17.32v-8.88H742.51v8.88H759.8Z"/><g class="cls-5"><path class="cls-2" d="M816.89,81.79c34.8-32.6,148.53-39.22,187.87-24.29,0,0,13.66,4.1,18.49,11.75,12.24,19.38-41.08,33.34-49.48,35.35a416.57,416.57,0,0,1-82.5,11.53l35.58,21.64c4,2.44,18.26,10.06,21.43,15.26,4.65,7.62-10.89,6.54-18,1.77-8.42-5.68-30.84-20.92-46-32.29,0,0-25.13,44.6-43.76,43.56,0,0-6.07.21,0-13,0,0,11.94-35,48.79-63.87l.68-5a158.66,158.66,0,0,0-27.7,22.25s-5.18,4.87-10,3c0,0-2.46-.83.32-4.91l16.65-26.34c-36.73,25.87-101,84-135.22,84.91-12,1.29-15-2.16-15.79-12-.62-7.32,3.38-4.5,7.29-1.9,29.14,19.39,111-59.11,150.94-80.57,0,0,4.14-3,6.18-.79,0,0,1.58,1.42-.21,4.41L869.76,92.52s20.53-16.44,25.92-14c0,0,3.87.68,2.19,5.08,0,0,18.28-15.6,21.78-12.62,0,0,1.9,1.94-1.88,3.73,0,0-15.17,8.74-20.31,13.45,0,0-3.66,14.13-7.54,23.55,0,0,94.37-7.62,116.55-30.28,6.42-6.57,6.48-12.83-1.79-17.43C974.3,47.09,848.51,54.77,830.23,84.4c-3.13,5.07,1.79,5.47.84,8-1.81,3.89-25.27-.19-14.18-10.58Zm69.2,15.65c-14.68,13.34-26.38,30.87-34.35,53.71a168.45,168.45,0,0,0,34.35-53.71Z"/></g></svg>