<svg id="Layer_1" data-name="Layer 1" xmlns="http://www.w3.org/2000/svg" xmlns:xlink="http://www.w3.org/1999/xlink" viewBox="0 0 216 216"><defs><style>.cls-1{fill:none;}.cls-2{clip-path:url(#clip-path);}.cls-3{fill:#fff;}.cls-3,.cls-4{fill-rule:evenodd;}.cls-4{fill:#ed2224;}</style><clipPath id="clip-path"><rect class="cls-1" x="1.52" width="216" height="216"/></clipPath></defs><title>Logo-White-Icon</title><g class="cls-2"><path class="cls-3" d="M-10.18,81.79C24.63,49.19,138.36,42.57,177.69,57.5c0,0,13.66,4.1,18.49,11.75,12.24,19.38-41.07,33.34-49.48,35.35a416.41,416.41,0,0,1-82.5,11.53l35.58,21.64c4,2.44,18.27,10.06,21.43,15.26,4.65,7.62-10.89,6.54-18,1.77-8.42-5.68-30.83-20.92-46-32.29,0,0-25.12,44.6-43.75,43.56,0,0-6.08.21,0-13,0,0,11.93-35,48.78-63.87l.68-5a158.66,158.66,0,0,0-27.7,22.25s-5.18,4.87-10,3c0,0-2.47-.83.32-4.91L42.12,78.17C5.39,104-58.82,162.21-93.1,163.08c-12,1.29-15-2.16-15.78-12-.62-7.32,3.38-4.5,7.28-1.9,29.14,19.39,111-59.11,151-80.57,0,0,4.13-3,6.18-.79,0,0,1.57,1.42-.22,4.41L42.7,92.52s20.52-16.44,25.91-14c0,0,3.88.68,2.2,5.08,0,0,18.28-15.6,21.78-12.62,0,0,1.89,1.94-1.88,3.73,0,0-15.18,8.74-20.31,13.45,0,0-3.67,14.13-7.54,23.55,0,0,94.37-7.62,116.54-30.28,6.42-6.57,6.48-12.83-1.78-17.43C147.23,47.09,21.45,54.77,3.17,84.4,0,89.47,5,89.87,4,92.37c-1.8,3.89-25.26-.19-14.18-10.58ZM59,97.44c-14.67,13.34-26.38,30.87-34.35,53.71A168.45,168.45,0,0,0,59,97.44Z"/><path class="cls-4" d="M142.89,146.41A6.59,6.59,0,1,1,136.3,153a6.6,6.6,0,0,1,6.59-6.59Z"/></g></svg>