<svg version="1" xmlns="http://www.w3.org/2000/svg" width="1365.333" height="1365.333" viewBox="0 0 1024.000000 1024.000000"><path d="M583.3 237c-217.7 8.2-409.8 52.4-513.8 118.2-25.3 16-48.7 36.3-53.4 46.1-6.9 14.3-.8 26.7 17.2 35.2 12.3 5.9 21.3 7.8 37.2 7.9 15.7.1 18-.3 22.4-4 4.3-3.6 4-6.6-1.6-14.7-4-5.7-4.7-7.5-4.7-11.5.1-16 26.5-42.9 62.1-63 52.5-29.9 144.8-56.2 250.8-71.6 75.4-10.9 140.5-16 220.5-17.2 86.2-1.4 161.3 4.2 220.6 16.1 77.3 15.7 114.2 41.3 106 73.4-11.5 45-84.3 85.7-212.6 119-75.3 19.5-183.7 38.6-287.7 50.5-30.9 3.6-70.6 7.6-71 7.2-.2-.2.6-2.8 1.8-5.7 7.4-18.6 19.9-57.5 28.5-88.3 2.4-8.8 5.2-16.8 6.1-17.9 6.1-6.6 40.5-29.8 77.4-52 21.9-13.1 25.6-15.7 27.2-18.9 1.6-3.3 1.7-4 .3-7.2-1-2.4-2.3-3.7-4.2-4.2-12.1-3.1-45.9 16.4-89.5 51.7l-9.5 7.7.4-5.7c.5-7.1-2.2-11.6-9.2-15-6.5-3.2-13.7-3.1-24.1.4-18.9 6.3-56.4 29.2-90.3 55.2-4.5 3.4-8.4 6.3-8.6 6.3-.3 0 12.4-20.6 28.1-45.8 15.7-25.1 29.3-47.3 30.3-49.2 3.8-7.7 3.5-14.4-1.1-19-5.7-5.6-14.8-4.7-28.2 3.1-59.9 34.4-92 56.4-219.7 150.4-30 22-62.7 46.1-72.7 53.4L0 541.1v19.5c0 10.7.3 19.4.8 19.4 1.3 0 54.2-40.5 156.3-119.7 39.7-30.8 80.5-61.7 101.3-76.8 12.9-9.3 14.7-10.3 12.9-7.4-1.1 1.9-19.2 30.6-40.3 63.9-21 33.3-38.9 61.9-39.6 63.7-1.9 4.5-1.8 10.7.4 13.1 3.9 4.5 16.6 5.6 27.1 2.3 10.8-3.3 19.4-9.4 35-24.5 25.3-24.5 44.5-40.8 73.2-62.3 19.8-14.9 44.7-31.8 45.5-31 1.1 1.1-2 20-3.5 21.7-.9 1-8.3 7.4-16.6 14.3-79.9 66.4-148.2 152-192.5 241.2-12.3 24.7-27.4 60.8-31.2 74.3-4.5 16.2-2.4 29.2 5.3 33.4 7.1 4 28.3.2 44.6-8.1 33.4-16.9 76.4-60.1 118.4-119.1 12.2-17.1 32.5-47.9 41.8-63.5 4-6.6 7.6-12.3 8-12.8.4-.4 6.3 3.4 13.2 8.5 57.4 42.4 201 141.9 214.4 148.6 7.3 3.6 18.2 7.3 29 9.8 5.9 1.4 11.8 1.9 22.5 1.9 13.6 0 14.8-.2 20.2-2.7 15.7-7.3 10.2-23.4-14.7-43.6-11-8.9-38.1-26.7-62-40.7-11-6.4-57.5-34.5-103.3-62.3l-83.4-50.7 10.4-.7c5.6-.4 22.2-1.4 36.8-2.3 143.9-8.7 312.4-38.8 419.7-74.9 145.8-49.1 197.7-105.9 145.3-158.7-18.7-18.9-44.3-32.5-88-46.7-48.8-15.9-109.9-25.6-191-30.2-25.1-1.4-105.4-2-132.7-1zM349.6 475.2c-35 83.2-82.6 158.2-143.9 226.5-6 6.8-11.1 12.3-11.2 12.3-.5 0 8.8-24.4 13.8-36.5 32.6-78.9 78.1-147.8 133-201.3 6.4-6.1 11.8-11.2 12.1-11.2.2 0-1.5 4.6-3.8 10.2zM743.4 695.1c-8.7 2.5-18.1 12.2-20.5 21.2-1.7 6.3-.8 17.4 1.9 22.8 2.9 5.9 8.4 11.4 14.7 14.7 4.3 2.3 6.3 2.7 13.5 2.7 7.3 0 9.3-.4 14.2-2.8 6.5-3.2 12.1-9 15.1-15.6 3-6.5 3-18.7 0-25.2-3.1-6.9-9-12.8-15.8-16.1-4.9-2.3-7.3-2.8-13-2.7-3.8 0-8.4.5-10.1 1z"/></svg>